<?xml version="1.0" encoding="UTF-8"?>
<svg width="19px" height="11px" viewBox="0 0 19 11" version="1.1" xmlns="http://www.w3.org/2000/svg" xmlns:xlink="http://www.w3.org/1999/xlink">
    <title>down copy</title>
    <defs>
        <filter color-interpolation-filters="auto" id="filter-1">
            <feColorMatrix in="SourceGraphic" type="matrix" values="0 0 0 0 0.200000 0 0 0 0 0.200000 0 0 0 0 0.200000 0 0 0 1.000000 0"></feColorMatrix>
        </filter>
    </defs>
    <g id="Homepage---MB" stroke="none" stroke-width="1" fill="none" fill-rule="evenodd">
        <g id="Opt2---Nav---Category-Closed" transform="translate(-280.000000, -688.000000)">
            <g id="Nav---links" transform="translate(19.000000, 470.000000)">
                <g id="down-copy" transform="translate(265.000000, 214.000000)" filter="url(#filter-1)">
                    <g transform="translate(5.500000, 9.500000) rotate(90.000000) translate(-5.500000, -9.500000) ">
                        <path d="M10.7467708,9.06554878 L2.046,0.26854878 C1.9215625,0.142731707 1.77833333,0.0797073171 1.61654167,0.0797073171 C1.45475,0.0797073171 1.31152083,0.142731707 1.18708333,0.26854878 L0.2536875,1.21252439 C0.129020833,1.33834146 0.0669166667,1.48292683 0.0669166667,1.6467439 C0.0669166667,1.81056098 0.129020833,1.95514634 0.2536875,2.08096341 L7.591375,9.5 L0.2536875,16.9192683 C0.129020833,17.0450854 0.0669166667,17.1899024 0.0669166667,17.3532561 C0.0669166667,17.5170732 0.129020833,17.6618902 0.2536875,17.7877073 L1.18708333,18.7312195 C1.31152083,18.8572683 1.45475,18.9198293 1.61654167,18.9198293 C1.77833333,18.9198293 1.9215625,18.8570366 2.046,18.7312195 L10.7465417,9.93421951 C10.8709792,9.80840244 10.9330833,9.66358537 10.9330833,9.5 C10.9330833,9.33641463 10.8712083,9.19159756 10.7467708,9.06554878 L10.7467708,9.06554878 Z" id="Shape" fill="#FFFFFF"></path>
                    </g>
                </g>
            </g>
        </g>
    </g>
</svg>