<svg xmlns="http://www.w3.org/2000/svg" viewBox="0 0 152.97 72.15">
  <defs>
    <style>
      .cls-1 {
        isolation: isolate;
      }

      .cls-2 {
        opacity: 0.7;
      }

      .cls-2, .cls-4 {
        mix-blend-mode: multiply;
      }

      .cls-3 {
        fill: #37b8eb;
      }

      .cls-4 {
        opacity: 0.27;
      }

      .cls-5 {
        fill: #81bf46;
      }

      .cls-6 {
        fill: #f1a42b;
      }

      .cls-7 {
        opacity: 0.59;
        font-size: 25.05px;
        fill: #00aeef;
        font-family: Roboto-Black, Roboto;
        font-weight: 800;
        letter-spacing: -0.01em;
      }

      .cls-8 {
        letter-spacing: 0.02em;
      }
    </style>
  </defs>
  <g class="cls-1">
    <g id="Layer_1" data-name="Layer 1">
      <g id="pinwheel">
        <g id="bottom" class="cls-2">
          <path class="cls-3" d="M165.21,11.89c-9.59,14.66-9.17,35.09-.43,50l-1.26,1.27c-14.73-9.66-34.33-8.81-49.33-.28l-1.41-1.41c9-14.73,8.45-34.11.14-48.91l1.27-1.26c14.94,8.87,34.88,8.52,49.6-.85Zm-37.14,25.3c-2.33,8.38-7.47,15.5-12.19,22.62,7.19-4.65,14.3-9.94,22.76-12.05,8.17,2.11,15.22,7,22.2,11.48-4.65-6.9-9.52-13.88-11.63-22.05,2.11-8.74,7.68-15.72,12.4-23.12-7.26,5-14.44,10.22-23,12.55-8.17-2.26-15.22-7-22.13-11.7C121.09,21.89,125.88,28.94,128.07,37.19Z" transform="translate(-102.35 -1.67)"/>
        </g>
        <g id="top" class="cls-4">
          <path class="cls-3" d="M138.83,1.67c3.58,17.15,18.33,31.3,35.08,35.68v1.79c-17.24,3.59-30.5,18-35.08,34.69h-2c-4.08-16.75-18.14-30.1-34.48-34.68v-1.8c16.84-4.28,30.69-18.63,34.47-35.67Zm-8.37,44.15c4.28,7.58,5.68,16.25,7.37,24.62,1.8-8.37,3.09-17.14,7.57-24.62,7.28-4.28,15.75-5.78,23.83-7.57-8.18-1.59-16.55-3.09-23.83-7.37-4.68-7.68-5.67-16.55-7.57-25.12-1.59,8.67-3,17.44-7.37,25.11-7.38,4.19-15.75,5.78-23.92,7.38C114.71,39.94,123.08,41.54,130.46,45.82Z" transform="translate(-102.35 -1.67)"/>
        </g>
      </g>
      <g id="fs">
        <path class="cls-5" d="M130.13,33.41h7.31v1.82h-4.35v1.46h3.72V38.4h-3.72v3.44h-3Z" transform="translate(-102.35 -1.67)"/>
        <path class="cls-6" d="M139.17,39.06,142,38.9a1.82,1.82,0,0,0,.38.92,1.91,1.91,0,0,0,2.27.26.71.71,0,0,0,0-1.2,4.07,4.07,0,0,0-1.52-.49,6.88,6.88,0,0,1-2.77-1,2,2,0,0,1-.84-1.63A2,2,0,0,1,140,34.5a2.78,2.78,0,0,1,1.29-.91,6.71,6.71,0,0,1,2.35-.33,5.32,5.32,0,0,1,2.8.6,2.53,2.53,0,0,1,1.15,1.91l-2.78.14a1.22,1.22,0,0,0-.47-.82,1.62,1.62,0,0,0-1-.26,1.3,1.3,0,0,0-.78.19.56.56,0,0,0-.26.47.47.47,0,0,0,.21.37,2.74,2.74,0,0,0,1,.31,13.54,13.54,0,0,1,2.78.74,2.88,2.88,0,0,1,1.22.94,2.19,2.19,0,0,1,.38,1.25,2.42,2.42,0,0,1-.51,1.49,3.05,3.05,0,0,1-1.42,1,6.36,6.36,0,0,1-2.31.36,5.21,5.21,0,0,1-3.38-.83A3.08,3.08,0,0,1,139.17,39.06Z" transform="translate(-102.35 -1.67)"/>
      </g>
      <text class="cls-7" transform="translate(74.62 36.43)">Sta<tspan class="cls-8" x="37.12" y="0">r</tspan><tspan x="47.07" y="0">ter</tspan><tspan x="0" y="20.49">Theme</tspan></text>
    </g>
  </g>
</svg>
